<svg width="119" height="213" viewBox="0 0 119 213" fill="none" xmlns="http://www.w3.org/2000/svg">
  <mask id="path-1-outside-1_404_331" maskUnits="userSpaceOnUse" x="10" y="-5.00001" width="106" height="173"
    fill="black">
    <rect fill="white" x="10" y="-5.00001" width="106" height="173" />
    <path
      d="M74.5639 47.5973L74.5639 48.8359C74.5639 54.4614 74.0478 59.803 73.0157 64.8608C71.9318 69.9702 70.0223 74.6925 67.287 79.0277C64.5516 83.4145 60.6551 87.2853 55.5973 90.6399C49.6622 94.5623 45.3528 98.7943 42.6691 103.336C39.9337 107.929 38.5661 113.503 38.5661 120.058C38.5661 125.064 39.7273 129.296 42.0497 132.754C44.3206 136.211 47.2881 138.818 50.9524 140.572C54.5651 142.327 58.4101 143.205 62.4872 143.205C66.4612 143.205 70.2545 142.379 73.8672 140.727C77.4799 139.076 80.4733 136.495 82.8473 132.986C85.2214 129.528 86.589 125.064 86.9503 119.593L110.484 119.593C110.123 128.883 107.775 136.728 103.44 143.127C99.0528 149.578 93.2983 154.455 86.1762 157.759C79.054 161.062 71.1577 162.713 62.4872 162.713C52.991 162.713 44.6818 160.881 37.5597 157.217C30.4375 153.604 24.9153 148.572 20.9929 142.121C17.019 135.721 15.032 128.367 15.032 120.058C15.032 110.768 17.3544 102.665 21.9993 95.7493C26.6442 88.8852 32.4503 83.2597 39.4176 78.8729C44.7851 75.4666 48.7332 72.4474 51.2621 69.8153C53.7394 67.1832 55.3651 64.2673 56.1392 61.0675C56.8618 57.9193 57.223 53.8421 57.223 48.8359L57.223 47.5973L74.5639 47.5973ZM74.5639 47.5973L78.2799 115.955L58.152 115.955L60.1648 47.5973L74.5639 47.5973ZM66.1257 0.529115C70.3578 0.529115 73.9962 2.0258 77.0412 5.01917C80.0862 8.06415 81.6087 11.7285 81.6087 16.0121C81.6087 20.2441 80.0862 23.8568 77.0412 26.8501C73.9962 29.8951 70.3577 31.4176 66.1257 31.4176C61.9453 31.4176 58.3327 29.8951 55.2877 26.8501C52.1911 23.8568 50.6428 20.2441 50.6428 16.0121C50.6428 13.1735 51.3653 10.5672 52.8104 8.19318C54.2039 5.87073 56.0618 4.01278 58.3843 2.61931C60.7067 1.22585 63.2872 0.529114 66.1257 0.529115Z" />
  </mask>
  <path
    d="M74.5639 47.5973L74.5639 48.8359C74.5639 54.4614 74.0478 59.803 73.0157 64.8608C71.9318 69.9702 70.0223 74.6925 67.287 79.0277C64.5516 83.4145 60.6551 87.2853 55.5973 90.6399C49.6622 94.5623 45.3528 98.7943 42.6691 103.336C39.9337 107.929 38.5661 113.503 38.5661 120.058C38.5661 125.064 39.7273 129.296 42.0497 132.754C44.3206 136.211 47.2881 138.818 50.9524 140.572C54.5651 142.327 58.4101 143.205 62.4872 143.205C66.4612 143.205 70.2545 142.379 73.8672 140.727C77.4799 139.076 80.4733 136.495 82.8473 132.986C85.2214 129.528 86.589 125.064 86.9503 119.593L110.484 119.593C110.123 128.883 107.775 136.728 103.44 143.127C99.0528 149.578 93.2983 154.455 86.1762 157.759C79.054 161.062 71.1577 162.713 62.4872 162.713C52.991 162.713 44.6818 160.881 37.5597 157.217C30.4375 153.604 24.9153 148.572 20.9929 142.121C17.019 135.721 15.032 128.367 15.032 120.058C15.032 110.768 17.3544 102.665 21.9993 95.7493C26.6442 88.8852 32.4503 83.2597 39.4176 78.8729C44.7851 75.4666 48.7332 72.4474 51.2621 69.8153C53.7394 67.1832 55.3651 64.2673 56.1392 61.0675C56.8618 57.9193 57.223 53.8421 57.223 48.8359L57.223 47.5973L74.5639 47.5973ZM74.5639 47.5973L78.2799 115.955L58.152 115.955L60.1648 47.5973L74.5639 47.5973ZM66.1257 0.529115C70.3578 0.529115 73.9962 2.0258 77.0412 5.01917C80.0862 8.06415 81.6087 11.7285 81.6087 16.0121C81.6087 20.2441 80.0862 23.8568 77.0412 26.8501C73.9962 29.8951 70.3577 31.4176 66.1257 31.4176C61.9453 31.4176 58.3327 29.8951 55.2877 26.8501C52.1911 23.8568 50.6428 20.2441 50.6428 16.0121C50.6428 13.1735 51.3653 10.5672 52.8104 8.19318C54.2039 5.87073 56.0618 4.01278 58.3843 2.61931C60.7067 1.22585 63.2872 0.529114 66.1257 0.529115Z"
    fill="white" />
  <path
    d="M74.5639 47.5973L79.5639 47.5973L79.5639 42.5973L74.5639 42.5973L74.5639 47.5973ZM73.0157 64.8608L77.9068 65.8983L77.9108 65.8795L77.9147 65.8606L73.0157 64.8608ZM67.287 79.0277L63.0583 76.3596L63.0512 76.3709L63.0442 76.3822L67.287 79.0277ZM55.5973 90.6399L58.3541 94.8113L58.361 94.8067L55.5973 90.6399ZM42.6691 103.336L46.965 105.894L46.9694 105.887L46.9737 105.88L42.6691 103.336ZM42.0497 132.754L46.2291 130.009L46.2149 129.987L46.2004 129.966L42.0497 132.754ZM50.9524 140.572L53.137 136.075L53.1245 136.069L53.112 136.063L50.9524 140.572ZM73.8672 140.727L71.7884 136.18L71.7884 136.18L73.8672 140.727ZM82.8473 132.986L78.7253 130.156L78.7156 130.17L78.7059 130.184L82.8473 132.986ZM86.9503 119.593L86.9503 114.593L82.2696 114.593L81.9612 119.264L86.9503 119.593ZM110.484 119.593L115.481 119.787L115.683 114.593L110.484 114.593L110.484 119.593ZM103.44 143.127L107.574 145.939L107.579 145.931L103.44 143.127ZM86.1762 157.759L88.2798 162.294L88.2798 162.294L86.1762 157.759ZM37.5597 157.217L39.8471 152.771L39.8344 152.764L39.8216 152.757L37.5597 157.217ZM20.9929 142.121L25.2652 139.523L25.253 139.503L25.2406 139.483L20.9929 142.121ZM21.9993 95.7493L17.8583 92.9471L17.8535 92.9543L17.8486 92.9615L21.9993 95.7493ZM39.4176 78.8729L42.0817 83.104L42.0892 83.0993L42.0968 83.0945L39.4176 78.8729ZM51.2621 69.8153L54.8676 73.2795L54.8855 73.2609L54.9031 73.2422L51.2621 69.8153ZM56.1392 61.0675L60.999 62.2432L61.0059 62.2146L61.0125 62.1859L56.1392 61.0675ZM57.223 47.5973L57.223 42.5973L52.223 42.5973L52.223 47.5973L57.223 47.5973ZM74.5639 47.5973L79.5566 47.3259L79.2995 42.5973L74.5639 42.5973L74.5639 47.5973ZM78.2799 115.955L78.2799 120.955L83.559 120.955L83.2725 115.683L78.2799 115.955ZM58.152 115.955L53.1542 115.807L53.0026 120.955L58.152 120.955L58.152 115.955ZM60.1648 47.5973L60.1648 42.5973L55.3099 42.5973L55.167 47.4501L60.1648 47.5973ZM77.0412 5.01917L80.5768 1.48364L80.5617 1.46853L80.5464 1.45355L77.0412 5.01917ZM77.0412 26.8501L73.536 23.2845L73.5208 23.2995L73.5057 23.3146L77.0412 26.8501ZM55.2877 26.8501L58.8232 23.3146L58.7932 23.2846L58.7628 23.2552L55.2877 26.8501ZM52.8104 8.19318L57.0814 10.7929L57.0897 10.7793L57.0979 10.7657L52.8104 8.19318ZM58.3843 2.61931L55.8118 -1.66815L55.8118 -1.66815L58.3843 2.61931ZM69.5639 47.5973L69.5639 48.8359L79.5639 48.8359L79.5639 47.5973L69.5639 47.5973ZM69.5639 48.8359C69.5639 54.1553 69.076 59.1601 68.1166 63.861L77.9147 65.8606C79.0197 60.4459 79.5639 54.7675 79.5639 48.8359L69.5639 48.8359ZM68.1245 63.8233C67.161 68.3654 65.4721 72.534 63.0583 76.3596L71.5156 81.6958C74.5725 76.8509 76.7027 71.5749 77.9068 65.8983L68.1245 63.8233ZM63.0442 76.3822C60.7476 80.0654 57.3979 83.4458 52.8336 86.4731L58.361 94.8067C63.9122 91.1248 68.3557 86.7637 71.5297 81.6732L63.0442 76.3822ZM52.8406 86.4685C46.4824 90.6705 41.5441 95.4112 38.3644 100.792L46.9737 105.88C49.1614 102.177 52.842 98.454 58.3541 94.8113L52.8406 86.4685ZM38.3731 100.778C35.0832 106.302 33.5661 112.805 33.5661 120.058L43.5661 120.058C43.5661 114.201 44.7843 109.556 46.965 105.894L38.3731 100.778ZM33.5661 120.058C33.5661 125.853 34.9194 131.105 37.899 135.541L46.2004 129.966C44.5351 127.486 43.5661 124.274 43.5661 120.058L33.5661 120.058ZM37.8704 135.498C40.6316 139.703 44.2915 142.926 48.7929 145.082L53.112 136.063C50.2847 134.709 48.0096 132.72 46.2291 130.009L37.8704 135.498ZM48.7679 145.07C53.072 147.161 57.6651 148.205 62.4872 148.205L62.4872 138.205C59.155 138.205 56.0583 137.494 53.137 136.075L48.7679 145.07ZM62.4872 148.205C67.1783 148.205 71.6806 147.225 75.946 145.275L71.7884 136.18C68.8284 137.533 65.7441 138.205 62.4872 138.205L62.4872 148.205ZM75.946 145.275C80.4495 143.216 84.1361 140.004 86.9887 135.787L78.7059 130.184C76.8104 132.986 74.5103 134.936 71.7884 136.18L75.946 145.275ZM86.9693 135.816C89.9851 131.423 91.5367 126.021 91.9394 119.923L81.9612 119.264C81.6414 124.107 80.4576 127.633 78.7253 130.156L86.9693 135.816ZM86.9503 124.593L110.484 124.593L110.484 114.593L86.9503 114.593L86.9503 124.593ZM105.488 119.399C105.156 127.946 103.014 134.84 99.3001 140.323L107.579 145.931C112.536 138.615 115.09 129.82 115.481 119.787L105.488 119.399ZM99.305 140.316C95.4301 146.014 90.3797 150.298 84.0725 153.223L88.2798 162.294C96.217 158.613 102.675 153.143 107.574 145.939L99.305 140.316ZM84.0725 153.223C77.6756 156.189 70.5077 157.713 62.4872 157.713L62.4872 167.713C71.8077 167.713 80.4324 165.934 88.2798 162.294L84.0725 153.223ZM62.4872 157.713C53.6397 157.713 46.1417 156.009 39.8471 152.771L35.2722 161.663C43.222 165.753 52.3423 167.713 62.4872 167.713L62.4872 157.713ZM39.8216 152.757C33.4797 149.541 28.6755 145.132 25.2652 139.523L16.7206 144.718C21.1551 152.012 27.3953 157.667 35.2978 161.676L39.8216 152.757ZM25.2406 139.483C21.8082 133.956 20.032 127.534 20.032 120.058L10.032 120.058C10.032 129.2 12.2297 137.487 16.7452 144.758L25.2406 139.483ZM20.032 120.058C20.032 111.642 22.1214 104.535 26.15 98.5371L17.8486 92.9615C12.5874 100.795 10.032 109.893 10.032 120.058L20.032 120.058ZM26.1403 98.5515C30.3998 92.2569 35.7043 87.1194 42.0817 83.104L36.7536 74.6417C29.1963 79.4 22.8886 85.5135 17.8583 92.9471L26.1403 98.5515ZM42.0968 83.0945C47.5925 79.6069 51.9303 76.3367 54.8676 73.2795L47.6566 66.3512C45.5362 68.5582 41.9777 71.3264 36.7385 74.6512L42.0968 83.0945ZM54.9031 73.2422C57.9153 70.0417 60.0012 66.3674 60.999 62.2432L51.2794 59.8917C50.7289 62.1672 49.5634 64.3248 47.6211 66.3885L54.9031 73.2422ZM61.0125 62.1859C61.852 58.5284 62.223 54.037 62.223 48.8359L52.223 48.8359C52.223 53.6472 51.8716 57.3102 51.2659 59.949L61.0125 62.1859ZM62.223 48.8359L62.223 47.5973L52.223 47.5973L52.223 48.8359L62.223 48.8359ZM57.223 52.5973L74.5639 52.5973L74.5639 42.5973L57.223 42.5973L57.223 52.5973ZM69.5713 47.8687L73.2872 116.226L83.2725 115.683L79.5566 47.3259L69.5713 47.8687ZM78.2799 110.955L58.152 110.955L58.152 120.955L78.2799 120.955L78.2799 110.955ZM63.1498 116.102L65.1626 47.7445L55.167 47.4501L53.1542 115.807L63.1498 116.102ZM60.1648 52.5973L74.5639 52.5973L74.5639 42.5973L60.1648 42.5973L60.1648 52.5973ZM66.1257 5.52911C69.0334 5.52911 71.4168 6.50145 73.536 8.58479L80.5464 1.45355C76.5757 -2.44984 71.6821 -4.47088 66.1257 -4.47089L66.1257 5.52911ZM73.5057 8.55471C75.6186 10.6676 76.6087 13.0624 76.6087 16.0121L86.6087 16.0121C86.6087 10.3945 84.5538 5.46073 80.5768 1.48364L73.5057 8.55471ZM76.6087 16.0121C76.6087 18.8897 75.6344 21.2217 73.536 23.2845L80.5464 30.4158C84.538 26.4919 86.6087 21.5985 86.6087 16.0121L76.6087 16.0121ZM73.5057 23.3146C71.3799 25.4404 69.0058 26.4176 66.1257 26.4176L66.1257 36.4176C71.7097 36.4176 76.6126 34.3499 80.5768 30.3857L73.5057 23.3146ZM66.1257 26.4176C63.3154 26.4176 60.9621 25.4535 58.8232 23.3146L51.7521 30.3857C55.7032 34.3368 60.5753 36.4176 66.1257 36.4176L66.1257 26.4176ZM58.7628 23.2552C56.6213 21.1851 55.6428 18.8618 55.6428 16.0121L45.6428 16.0121C45.6428 21.6264 47.7609 26.5284 51.8126 30.4451L58.7628 23.2552ZM55.6428 16.0121C55.6428 14.07 56.1237 12.3662 57.0814 10.7929L48.5394 5.59344C46.6069 8.76823 45.6428 12.2771 45.6428 16.0121L55.6428 16.0121ZM57.0979 10.7657C58.0691 9.14696 59.3381 7.87799 60.9567 6.90678L55.8118 -1.66815C52.7856 0.147564 50.3387 2.59451 48.5229 5.6207L57.0979 10.7657ZM60.9567 6.90678C62.464 6.00241 64.1479 5.52911 66.1257 5.52911L66.1257 -4.47089C62.4265 -4.47089 58.9494 -3.55072 55.8118 -1.66815L60.9567 6.90678Z"
    fill="black" mask="url(#path-1-outside-1_404_331)" />
</svg>
