<svg fill="none" height="163" viewBox="0 0 96 163" width="96" xmlns="http://www.w3.org/2000/svg"><path d="m59.5639 47.5973v1.2386c0 5.6255-.5161 10.9671-1.5482 16.0249-1.0839 5.1094-2.9934 9.8317-5.7287 14.1669-2.7354 4.3868-6.6319 8.2576-11.6897 11.6122-5.9351 3.9224-10.2445 8.1544-12.9282 12.6961-2.7354 4.593-4.103 10.167-4.103 16.722 0 5.006 1.1612 9.238 3.4836 12.696 2.2709 3.457 5.2384 6.064 8.9027 7.818 3.6127 1.755 7.4577 2.633 11.5348 2.633 3.974 0 7.7673-.826 11.38-2.478 3.6127-1.651 6.6061-4.232 8.9801-7.741 2.3741-3.458 3.7417-7.922 4.103-13.393h23.5341c-.3613 9.29-2.7095 17.135-7.0447 23.534-4.3869 6.451-10.1414 11.328-17.2635 14.632-7.1222 3.303-15.0185 4.954-23.689 4.954-9.4962 0-17.8054-1.832-24.9275-5.496-7.1222-3.613-12.64444-8.645-16.56678-15.096-3.97396-6.4-5.9609395-13.754-5.9609388-22.063.0000009-9.29 2.3224488-17.393 6.9673288-24.3087 4.64489-6.8641 10.45099-12.4896 17.41829-16.8764 5.3675-3.4063 9.3156-6.4255 11.8445-9.0576 2.4773-2.6321 4.103-5.548 4.8771-8.7478.7226-3.1482 1.0838-7.2254 1.0838-12.2316v-1.2386zm0 0 3.716 68.3577h-20.1279l2.0128-68.3577zm-8.4382-47.068185c4.2321 0 7.8705 1.496685 10.9155 4.490055 3.045 3.04498 4.5675 6.70933 4.5675 10.99293 0 4.232-1.5225 7.8447-4.5675 10.838-3.045 3.045-6.6835 4.5675-10.9155 4.5675-4.1804 0-7.793-1.5225-10.838-4.5675-3.0966-2.9933-4.6449-6.606-4.6449-10.838 0-2.8386.7225-5.4449 2.1676-7.81892 1.3935-2.32245 3.2514-4.1804 5.5739-5.57387 2.3224-1.39346 4.9029-2.090196 7.7414-2.090195z" fill="#000"/></svg>