<svg xmlns="http://www.w3.org/2000/svg" width="96" height="100" fill="none" viewBox="0 0 96 100"><path fill="#242424" d="M21.8909 38.1729C21.6936 38.5958 21.4432 39.0381 21.1396 39.4997C20.8538 39.9548 20.5111 40.4056 20.1117 40.8519L19.1473 39.6076C19.5757 39.1307 19.9594 38.655 20.2984 38.1804C20.631 37.6882 20.9156 37.1883 21.1523 36.6808C21.2425 36.4875 21.3238 36.2974 21.3963 36.1105C21.4623 35.9059 21.5283 35.7013 21.5943 35.4967L21.6247 36.2832C21.6166 35.9852 21.5432 35.7009 21.4046 35.4303C21.2539 35.154 21.0517 34.9567 20.7979 34.8383C20.5321 34.7143 20.2462 34.7281 19.9401 34.8796C19.634 35.0311 19.3002 35.2579 18.9386 35.56C18.5826 35.8501 18.2065 36.1675 17.8103 36.5124C17.4197 36.8451 17.0194 37.1513 16.6095 37.4309C16.1875 37.7048 15.7509 37.8838 15.2999 37.9676C14.8488 38.0515 14.3876 37.9835 13.9164 37.7637C13.1551 37.4086 12.7208 36.7941 12.6135 35.9202C12.4941 35.0406 12.6909 34.051 13.2037 32.9514C13.3897 32.5527 13.6055 32.1531 13.8511 31.7527C14.1023 31.3402 14.3955 30.9326 14.7305 30.5298L15.8423 31.6001C15.4251 32.0528 15.0619 32.5161 14.7527 32.9898C14.4491 33.4514 14.1931 33.9057 13.9846 34.3528C13.9 34.5341 13.8215 34.7181 13.7491 34.905C13.6766 35.0919 13.6017 35.2998 13.5245 35.5285L13.5159 34.8845C13.524 35.1826 13.6114 35.4367 13.7782 35.6469C13.9329 35.8515 14.113 36.0016 14.3184 36.0975C14.5963 36.2271 14.9004 36.2218 15.2306 36.0816C15.5544 35.9236 15.8943 35.6996 16.2502 35.4096C16.6118 35.1074 16.9879 34.79 17.3785 34.4572C17.7627 34.1068 18.1658 33.7946 18.5878 33.5206C19.0098 33.2466 19.4403 33.0649 19.8793 32.9754C20.3183 32.8859 20.7613 32.9454 21.2084 33.154C21.9817 33.5147 22.4257 34.1557 22.5403 35.0772C22.6428 35.993 22.4263 37.0249 21.8909 38.1729ZM20.1117 40.8519L17.3904 39.4944L17.7286 38.7694L20.8629 39.194L20.1117 40.8519ZM16.9673 32.5L13.943 32.1707L14.7305 30.5298L17.3055 31.775L16.9673 32.5Z"/><path fill="#242424" d="M30.7661 27.2533C30.1144 27.7173 29.4189 27.9589 28.6795 27.9779C27.9433 27.9784 27.2174 27.775 26.5019 27.3678C25.7973 26.9529 25.1627 26.349 24.5982 25.5562C23.9795 24.6873 23.6034 23.8257 23.4698 22.9715C23.3362 22.1172 23.432 21.3207 23.757 20.5818C24.0821 19.843 24.6085 19.2145 25.3362 18.6963C25.7055 18.4334 26.0964 18.2123 26.509 18.0332C26.9215 17.854 27.3503 17.7205 27.7953 17.6329L28.3792 18.9357C27.4086 19.1358 26.4943 19.5413 25.6363 20.1522C25.3539 20.3533 25.0985 20.5924 24.8703 20.8695C24.642 21.1466 24.4571 21.4501 24.3156 21.78L24.5728 20.7621C24.6587 21.3884 24.8182 22.0032 25.0513 22.6065C25.2876 23.1912 25.5836 23.7333 25.9394 24.233C26.4034 24.8846 26.901 25.3651 27.4321 25.6743C27.9633 25.9836 28.5025 26.1316 29.0496 26.1185C29.5999 26.0868 30.1195 25.8969 30.6082 25.5489C30.9015 25.3401 31.1801 25.0762 31.4441 24.7573C31.7112 24.4199 31.9528 24.035 32.1689 23.6029L32.4964 23.7871C32.4181 25.3323 31.8414 26.4877 30.7661 27.2533ZM28.914 20.4454L26.443 18.5957L27.7953 17.6329L29.4679 20.051L28.914 20.4454Z"/><path fill="#242424" d="M44.8166 13.9754C43.5341 14.0452 42.351 14.4444 41.2673 15.1732L41.218 14.8166C41.5124 14.3182 41.8331 13.8633 42.18 13.4518C42.5269 13.0404 42.9047 12.6584 43.3136 12.3056C43.5645 12.2709 43.8068 12.271 44.0405 12.306C44.2723 12.3278 44.4965 12.391 44.7128 12.4957L44.8166 13.9754ZM39.2142 22.8066L39.1375 22.2519C39.3096 22.1339 39.4892 22.0215 39.6764 21.9149C39.8617 21.795 40.096 21.6886 40.3792 21.5955L39.6672 14.9908L38.4281 13.7691C39.1679 13.1822 39.9778 12.7605 40.8576 12.5042L41.3594 14.8172L42.2613 21.3351L44.4838 21.492L44.5633 22.0665L39.2142 22.8066Z"/><path fill="#242424" d="M55.2475 23.8427C54.4367 23.5367 53.8025 23.0835 53.345 22.4833C52.8875 21.883 52.6198 21.1763 52.542 20.3631C52.4814 19.5421 52.6253 18.67 52.9737 17.747C53.3457 16.7615 53.8429 15.9729 54.4653 15.3813C55.0923 14.7771 55.7993 14.3955 56.5862 14.2365C57.3778 14.065 58.1977 14.1394 59.0459 14.4595C59.8692 14.7703 60.5135 15.2344 60.9788 15.8518C61.4487 16.4568 61.7226 17.1659 61.8005 17.9791C61.8783 18.7923 61.743 19.6605 61.3945 20.5836C61.0226 21.569 60.5168 22.3615 59.8772 22.9609C59.2501 23.565 58.5369 23.9443 57.7376 24.0986C56.9507 24.2576 56.1207 24.1723 55.2475 23.8427ZM55.7952 22.7882C56.2817 22.9718 56.7599 22.9885 57.23 22.8381C57.7001 22.6878 58.1385 22.3758 58.5452 21.9023C58.952 21.4288 59.3014 20.8053 59.5933 20.0319C59.8758 19.2834 60.0162 18.6096 60.0143 18.0103C60.025 17.4158 59.8926 16.9169 59.6173 16.5137C59.3467 16.098 58.9556 15.7936 58.4442 15.6006C58.1199 15.4781 57.7346 15.404 57.2883 15.378C56.8592 15.3443 56.3481 15.358 55.755 15.4192L56.9964 15.0754C56.5023 15.516 56.0697 16.0012 55.6987 16.5309C55.3324 17.0483 55.0221 17.6437 54.7679 18.3173C54.4854 19.0658 54.3427 19.7459 54.3398 20.3576C54.3369 20.9693 54.4559 21.4846 54.6969 21.9033C54.9551 22.3143 55.3212 22.6093 55.7952 22.7882Z"/><path fill="#242424" d="M64.1635 28.8466L64.5748 28.4666C64.752 28.5208 64.9378 28.5942 65.1323 28.6869C65.3358 28.7893 65.5615 28.9256 65.8096 29.0958L74.4197 21.4687L74.7604 19.6565C75.2172 19.7972 75.6581 19.9798 76.0833 20.2042C76.5175 20.4385 76.9257 20.733 77.3079 21.0878L67.083 30.5333L67.7245 31.8467L67.2984 32.2402L64.1635 28.8466Z"/><path fill="#242424" d="M70.2562 36.8715L70.7788 36.6702C70.9234 36.786 71.069 36.9228 71.2155 37.0807C71.3669 37.251 71.5264 37.461 71.694 37.7108L82.5117 33.8011L83.4974 32.2427C83.8699 32.5421 84.2123 32.8746 84.5246 33.2401C84.8416 33.6181 85.1123 34.0425 85.3365 34.5134L72.3468 39.5168L72.4581 40.9742L71.9169 41.1827L70.2562 36.8715Z"/><path fill="#242424" d="M73.8648 61.3921C74.0621 60.9692 74.3125 60.5269 74.6161 60.0653C74.9019 59.6102 75.2446 59.1594 75.644 58.7131L76.6084 59.9574C76.18 60.4343 75.7963 60.91 75.4573 61.3846C75.1247 61.8768 74.8401 62.3767 74.6033 62.8842C74.5132 63.0775 74.4318 63.2676 74.3594 63.4545C74.2934 63.6591 74.2274 63.8637 74.1614 64.0683L74.131 63.2818C74.1391 63.5798 74.2125 63.8641 74.3511 64.1347C74.5018 64.411 74.704 64.6083 74.9577 64.7267C75.2236 64.8507 75.5095 64.8369 75.8156 64.6854C76.1216 64.5339 76.4555 64.3071 76.8171 64.005C77.173 63.7149 77.5491 63.3975 77.9454 63.0526C78.336 62.7199 78.7362 62.4137 79.1462 62.1341C79.5682 61.8602 80.0048 61.6813 80.4558 61.5974C80.9069 61.5135 81.368 61.5815 81.8393 61.8013C82.6006 62.1564 83.0348 62.7709 83.1422 63.6448C83.2616 64.5244 83.0648 65.514 82.5519 66.6136C82.366 67.0123 82.1502 67.4119 81.9046 67.8123C81.6533 68.2248 81.3602 68.6324 81.0252 69.0352L79.9134 67.9649C80.3306 67.5122 80.6937 67.0489 81.003 66.5752C81.3065 66.1136 81.5626 65.6593 81.7711 65.2122C81.8557 65.0309 81.9342 64.8469 82.0066 64.66C82.0791 64.4731 82.1539 64.2652 82.2312 64.0365L82.2398 64.6805C82.2317 64.3824 82.1442 64.1283 81.9775 63.9181C81.8228 63.7135 81.6427 63.5634 81.4373 63.4675C81.1594 63.3379 80.8553 63.3432 80.5251 63.4834C80.2013 63.6414 79.8614 63.8654 79.5054 64.1554C79.1438 64.4576 78.7677 64.775 78.3771 65.1078C77.993 65.4582 77.5899 65.7704 77.1679 66.0444C76.7459 66.3184 76.3154 66.5001 75.8764 66.5896C75.4374 66.6791 74.9944 66.6196 74.5473 66.411C73.7739 66.0503 73.33 65.4093 73.2154 64.4878C73.1129 63.572 73.3294 62.5401 73.8648 61.3921ZM75.644 58.7131L78.3652 60.0706L78.0271 60.7956L74.8928 60.371L75.644 58.7131ZM78.7884 67.065L81.8127 67.3943L81.0252 69.0352L78.4502 67.7901L78.7884 67.065Z"/><path fill="#242424" d="M64.9897 72.3117C65.6413 71.8477 66.3369 71.6061 67.0762 71.5871C67.8125 71.5866 68.5383 71.79 69.2538 72.1972C69.9584 72.6121 70.593 73.216 71.1575 74.0088C71.7762 74.8777 72.1524 75.7393 72.2859 76.5936C72.4195 77.4478 72.3237 78.2443 71.9987 78.9832C71.6736 79.722 71.1473 80.3505 70.4195 80.8687C70.0503 81.1316 69.6593 81.3527 69.2468 81.5318C68.8342 81.711 68.4054 81.8445 67.9605 81.9321L67.3765 80.6293C68.3471 80.4292 69.2614 80.0238 70.1195 79.4128C70.4019 79.2117 70.6572 78.9726 70.8855 78.6955C71.1137 78.4184 71.2986 78.1149 71.4402 77.785L71.1829 78.8029C71.097 78.1766 70.9375 77.5618 70.7044 76.9585C70.4681 76.3738 70.1721 75.8317 69.8164 75.332C69.3524 74.6804 68.8548 74.1999 68.3236 73.8907C67.7924 73.5814 67.2533 73.4334 66.7061 73.4465C66.1558 73.4782 65.6363 73.6681 65.1475 74.0161C64.8543 74.2249 64.5757 74.4888 64.3117 74.8077C64.0446 75.1451 63.803 75.53 63.5869 75.9621L63.2593 75.7779C63.3376 74.2327 63.9144 73.0773 64.9897 72.3117ZM66.8417 79.1196L69.3127 80.9693L67.9605 81.9321L66.2878 79.514L66.8417 79.1196Z"/><path fill="#242424" d="M50.939 85.5896C52.2216 85.5198 53.4047 85.1206 54.4884 84.3918L54.5377 84.7484C54.2432 85.2468 53.9226 85.7017 53.5757 86.1132C53.2288 86.5246 52.8509 86.9067 52.4421 87.2594C52.1911 87.2941 51.9488 87.294 51.7152 87.259C51.4833 87.2372 51.2592 87.174 51.0428 87.0694L50.939 85.5896ZM56.5414 76.7584L56.6182 77.3131C56.4461 77.4311 56.2664 77.5435 56.0793 77.6501C55.894 77.77 55.6597 77.8764 55.3764 77.9695L56.0885 84.5742L57.3276 85.7959C56.5877 86.3828 55.7779 86.8045 54.8981 87.0608L54.3963 84.7478L53.4944 78.2299L51.2719 78.073L51.1924 77.4985L56.5414 76.7584Z"/><path fill="#242424" d="M40.5083 75.7223C41.3191 76.0284 41.9532 76.4815 42.4107 77.0817C42.8682 77.682 43.1359 78.3887 43.2137 79.2019C43.2744 80.0229 43.1305 80.895 42.782 81.8181C42.4101 82.8035 41.9129 83.5921 41.2905 84.1837C40.6634 84.7879 39.9564 85.1695 39.1696 85.3285C38.378 85.5 37.5581 85.4257 36.7098 85.1055C35.8865 84.7947 35.2422 84.3306 34.777 83.7132C34.307 83.1082 34.0331 82.3991 33.9553 81.5859C33.8775 80.7727 34.0128 79.9045 34.3612 78.9814C34.7332 77.996 35.239 77.2035 35.8785 76.6041C36.5056 76 37.2188 75.6207 38.0182 75.4664C38.805 75.3074 39.6351 75.3927 40.5083 75.7223ZM39.9606 76.7768C39.4741 76.5932 38.9958 76.5765 38.5257 76.7269C38.0557 76.8772 37.6173 77.1892 37.2105 77.6627C36.8037 78.1362 36.4544 78.7597 36.1624 79.5331C35.8799 80.2816 35.7396 80.9554 35.7414 81.5547C35.7307 82.1492 35.8631 82.6481 36.1384 83.0513C36.4091 83.467 36.8001 83.7714 37.3116 83.9644C37.6359 84.0869 38.0212 84.161 38.4674 84.187C38.8965 84.2207 39.4076 84.207 40.0008 84.1458L38.7594 84.4896C39.2535 84.049 39.686 83.5638 40.057 83.0341C40.4233 82.5167 40.7336 81.9213 40.9879 81.2477C41.2704 80.4992 41.4131 79.8191 41.416 79.2074C41.4189 78.5957 41.2998 78.0804 41.0588 77.6617C40.8007 77.2507 40.4346 76.9557 39.9606 76.7768Z"/><path fill="#242424" d="M31.5922 70.7183L31.1808 71.0983C31.0037 71.0441 30.8179 70.9707 30.6234 70.8781C30.4199 70.7757 30.1941 70.6394 29.9461 70.4691L21.336 78.0962L20.9952 79.9085C20.5385 79.7678 20.0975 79.5852 19.6724 79.3607C19.2382 79.1265 18.83 78.832 18.4478 78.4772L28.6727 69.0317L28.0312 67.7183L28.4572 67.3247L31.5922 70.7183Z"/><path fill="#242424" d="M25.4994 62.6935L24.9769 62.8948C24.8323 62.779 24.6867 62.6422 24.5401 62.4843C24.3888 62.314 24.2293 62.104 24.0617 61.8542L13.244 65.7638L12.2583 67.3223C11.8858 67.0228 11.5434 66.6904 11.2311 66.3248C10.9141 65.9469 10.6434 65.5225 10.4192 65.0516L23.4089 60.0481L23.2976 58.5907L23.8388 58.3823L25.4994 62.6935Z"/></svg>